<svg width="60" height="60" viewBox="0 0 60 60" fill="none" xmlns="http://www.w3.org/2000/svg">
<g clip-path="url(#clip0_1_27)">
<path d="M15.907 42.0116C15.6891 41.7936 15.3867 41.6682 15.0785 41.6682C14.7692 41.6682 14.468 41.7936 14.25 42.0116C14.0309 42.2295 13.9067 42.5319 13.9067 42.8401C13.9067 43.1483 14.0309 43.4506 14.25 43.6686C14.468 43.8866 14.7692 44.012 15.0785 44.012C15.3867 44.012 15.6891 43.8866 15.907 43.6686C16.125 43.4506 16.2504 43.1483 16.2504 42.8401C16.2504 42.5319 16.125 42.2295 15.907 42.0116Z" fill="#F79C1B"/>
<path d="M26.5312 42.0116C26.3133 41.7936 26.0121 41.6682 25.7027 41.6682C25.3945 41.6682 25.0922 41.7936 24.8742 42.0116C24.6562 42.2295 24.5308 42.5319 24.5308 42.8401C24.5308 43.1483 24.6562 43.4506 24.8742 43.6686C25.0922 43.8866 25.3945 44.012 25.7027 44.012C26.0121 44.012 26.3133 43.8866 26.5312 43.6686C26.7504 43.4506 26.8746 43.1483 26.8746 42.8401C26.8746 42.5319 26.7504 42.2295 26.5312 42.0116Z" fill="#F79C1B"/>
<path d="M55.2715 42.0116C55.0535 41.7936 54.7523 41.6682 54.443 41.6682C54.1348 41.6682 53.8324 41.7936 53.6144 42.0116C53.3965 42.2295 53.2711 42.5319 53.2711 42.8401C53.2711 43.1483 53.3965 43.4506 53.6144 43.6686C53.8324 43.8866 54.1348 44.012 54.443 44.012C54.7523 44.012 55.0535 43.8866 55.2715 43.6686C55.4906 43.4506 55.6148 43.1483 55.6148 42.8401C55.6148 42.5319 55.4906 42.2295 55.2715 42.0116Z" fill="#F79C1B"/>
<path d="M51.1101 11.2875C50.891 11.0695 50.5898 10.9453 50.2804 10.9453C49.9722 10.9453 49.6699 11.0695 49.4519 11.2875C49.234 11.5066 49.1086 11.8078 49.1086 12.1172C49.1086 12.4254 49.234 12.7277 49.4519 12.9457C49.6699 13.1637 49.9722 13.2891 50.2804 13.2891C50.5898 13.2891 50.891 13.1637 51.1101 12.9457C51.3281 12.7266 51.4523 12.4254 51.4523 12.1172C51.4523 11.809 51.3281 11.5066 51.1101 11.2875Z" fill="#F79C1B"/>
<path d="M42.3427 8.10347C41.8851 7.64585 41.1431 7.64585 40.6854 8.10347L31.835 16.9538C31.3774 17.4114 31.3774 18.1535 31.835 18.6112C32.0639 18.8401 32.3638 18.9545 32.6637 18.9545C32.9635 18.9545 33.2635 18.8401 33.4923 18.6112L42.3427 9.76085C42.8004 9.30323 42.8004 8.5612 42.3427 8.10347Z" fill="#F79C1B"/>
<path d="M17.6563 13.3624H16.1689C16.1694 13.3427 16.1719 13.3236 16.1719 13.3038V2.40234C16.1719 1.07766 15.0942 0 13.7695 0H10.6055C9.28078 0 8.20312 1.07766 8.20312 2.40234V3.55582C8.18344 3.55535 8.16434 3.55289 8.14453 3.55289H4.98047C3.65578 3.55289 2.57812 4.63055 2.57812 5.95523V13.3038C2.57812 13.3236 2.58059 13.3427 2.58105 13.3624H1.17188C0.524648 13.3624 0 13.8871 0 14.5343C0 15.1815 0.524648 15.7062 1.17188 15.7062H4.98047H8.14453H10.6055H13.7695H17.6563C18.3035 15.7062 18.8282 15.1815 18.8282 14.5343C18.8282 13.8871 18.3035 13.3624 17.6563 13.3624ZM8.20312 13.3038C8.20312 13.3362 8.17688 13.3624 8.14453 13.3624H4.98047C4.94812 13.3624 4.92188 13.3362 4.92188 13.3038V5.95523C4.92188 5.92289 4.94812 5.89664 4.98047 5.89664H8.14453C8.17688 5.89664 8.20312 5.92289 8.20312 5.95523V13.3038ZM13.8281 13.3038C13.8281 13.3362 13.8019 13.3624 13.7695 13.3624H10.6055C10.5731 13.3624 10.5469 13.3362 10.5469 13.3038V5.95523V2.40234C10.5469 2.37 10.5731 2.34375 10.6055 2.34375H13.7695C13.8019 2.34375 13.8281 2.37 13.8281 2.40234V13.3038Z" fill="#F79C1B"/>
<path d="M10.002 18.8516V18.8526L10.003 18.8516H10.002Z" fill="#F79C1B"/>
<path d="M56.9531 26.7188C58.6331 26.7188 60 25.3519 60 23.6719V7.73438C60 6.05437 58.6331 4.6875 56.9531 4.6875H26.9531C25.2731 4.6875 23.9062 6.05437 23.9062 7.73438V23.6719C23.9062 25.3519 25.2731 26.7188 26.9531 26.7188H38.0859V28.7964C38.0859 30.5626 36.649 31.9995 34.8829 31.9995H14.0732C14.8254 31.0139 15.2735 29.7844 15.2735 28.4517V25.6392C15.2735 24.992 14.7489 24.4673 14.1016 24.4673H11.4567C11.4454 24.3236 11.4295 24.1724 11.4081 24.0156C12.2442 23.8864 13.2405 23.5611 13.9985 22.7889C15.4213 21.3384 15.2869 19.0523 15.2566 18.7003C15.2377 18.4282 15.1242 18.1615 14.9162 17.9534C14.7116 17.7487 14.4503 17.6358 14.1829 17.614C13.6635 17.5607 11.4048 17.4221 10.0021 18.8515C9.59918 19.262 9.32473 19.7398 9.13828 20.2233C7.51934 19.2509 5.54766 19.3642 5.17336 19.3959C4.89984 19.414 4.63125 19.5277 4.42219 19.7367C4.21746 19.9414 4.10437 20.2031 4.08281 20.4709C4.0309 20.9691 3.90609 22.8919 4.82004 24.4673H4.72664C4.07941 24.4673 3.55477 24.992 3.55477 25.6392V28.4517C3.55477 29.7845 4.00289 31.014 4.75512 31.9995H1.17188C0.524648 31.9995 0 32.5241 0 33.1713V51.9213C0 52.5686 0.524648 53.0932 1.17188 53.0932H9.53016L8.04949 58.5196C7.9534 58.872 8.02699 59.2491 8.24871 59.5393C8.47043 59.8296 8.81473 60 9.18 60H14.3363C14.7864 60 15.1968 59.7422 15.3921 59.3366L18.3988 53.0933H41.601L44.6077 59.3366C44.803 59.7422 45.2133 60 45.6635 60H50.8198C51.185 60 51.5295 59.8296 51.7511 59.5393C51.9728 59.2491 52.0465 58.872 51.9503 58.5196L50.4696 53.0932H58.8281C59.4754 53.0932 60 52.5686 60 51.9213V33.1713C60 32.5241 59.4754 31.9995 58.8281 31.9995H49.0234C47.2571 31.9995 45.8203 30.5625 45.8203 28.7964V26.7188H56.9531ZM11.6747 20.4933C11.9623 20.2003 12.417 20.0515 12.8561 19.982C12.7754 20.4067 12.6178 20.8496 12.3257 21.1474C12.0396 21.439 11.5944 21.596 11.1671 21.6763C11.2376 21.2447 11.3848 20.7886 11.6747 20.4933ZM8.32559 22.5335C8.81391 23.0127 9.02414 23.7832 9.10301 24.4419C8.43738 24.3763 7.64941 24.1819 7.16027 23.7018C6.67863 23.229 6.4841 22.4394 6.41953 21.7625C7.07273 21.8434 7.83668 22.0539 8.32559 22.5335ZM5.8984 26.8111H9.42375C9.50238 26.8132 9.57855 26.8145 9.65027 26.8145C9.7302 26.8145 9.80402 26.8131 9.8741 26.8111H12.9296V28.4517C12.9296 30.3902 11.3525 31.9673 9.41402 31.9673C7.47551 31.9673 5.8984 30.3902 5.8984 28.4517V26.8111ZM13.6001 57.6562H10.7146L11.9596 53.0932H15.7975L13.6001 57.6562ZM19.2188 50.7496H2.34375V34.3433H19.2188V50.7496ZM38.4375 50.7496H21.5625V34.3433H38.4375V50.7496ZM39.6094 31.9675C39.544 31.9675 39.4804 31.9741 39.4179 31.9845C40.0543 31.0818 40.4297 29.9824 40.4297 28.7965V26.7188H43.4766V28.7964C43.4766 29.989 43.8563 31.0939 44.4991 31.9996H39.878C39.7916 31.9793 39.702 31.9675 39.6094 31.9675ZM46.3999 57.6562L44.2024 53.0932H48.0403L49.2854 57.6562H46.3999ZM57.6562 34.3433V50.7496H40.7812V44.0119H49.9609C50.6081 44.0119 51.1328 43.4872 51.1328 42.84C51.1328 42.1928 50.6081 41.6681 49.9609 41.6681H40.7812V34.3433H57.6562ZM39.6799 24.375L47.8552 16.1998C48.3128 15.7421 48.3128 15.0001 47.8552 14.5424C47.3977 14.0848 46.6555 14.0849 46.1979 14.5424L36.4346 24.3056C36.4124 24.3279 36.3921 24.3513 36.3721 24.3749H26.9531C26.5654 24.375 26.25 24.0596 26.25 23.6719V7.73438C26.25 7.3466 26.5654 7.03125 26.9531 7.03125H56.9531C57.3409 7.03125 57.6562 7.3466 57.6562 7.73438V23.6719C57.6562 24.0596 57.3409 24.375 56.9531 24.375H39.6799Z" fill="#F79C1B"/>
</g>
<defs>
<clipPath id="clip0_1_27">
<rect width="60" height="60" fill="white"/>
</clipPath>
</defs>
</svg>
