<svg width="60" height="60" viewBox="0 0 60 60" fill="none" xmlns="http://www.w3.org/2000/svg">
<path d="M10.0195 0V60H49.9805V0H10.0195ZM38.4718 3.51562L37.8859 7.03125H22.1141L21.5282 3.51562H38.4718ZM46.4648 56.4844H13.5352V3.51562H17.964L19.1359 10.5469H40.8641L42.036 3.51562H46.4648V56.4844Z" fill="#F79C1B"/>
<path d="M23.2031 49.4531H36.7969V52.9688H23.2031V49.4531Z" fill="#F79C1B"/>
<path d="M30 35.93C28.5163 35.93 27.3093 34.9722 27.3093 33.7951H23.7936C23.7936 36.3552 25.6733 38.523 28.2422 39.2149V41.1701H31.7578V39.2149C34.3267 38.5231 36.2065 36.3552 36.2065 33.7951C36.2065 30.6794 33.4222 28.1447 30 28.1447C28.5163 28.1447 27.3093 27.1869 27.3093 26.0097C27.3093 24.8326 28.5163 23.8748 30 23.8748C31.4837 23.8748 32.6909 24.8326 32.6909 26.0097H36.2065C36.2065 23.4497 34.3267 21.2818 31.7578 20.5899V18.6348H28.2422V20.5899C25.6733 21.2817 23.7936 23.4497 23.7936 26.0097C23.7936 29.1254 26.5778 31.6603 30 31.6603C31.4837 31.6603 32.6909 32.6179 32.6909 33.7951C32.6909 34.9722 31.4837 35.93 30 35.93Z" fill="#F79C1B"/>
</svg>
